<svg id="e75QMBZvskr1" xmlns="http://www.w3.org/2000/svg" viewBox="0 0 436.17 436.17" shape-rendering="geometricPrecision" text-rendering="geometricPrecision"><style>@keyframes e75QMBZvskr3_ts__ts{0%,33.333333%{transform:translate(218.089996px,218.089996px) scale(0,0)}to{transform:translate(218.089996px,218.089996px) scale(1,1)}}</style><path d="M337.31 163.31c-.75-1.8-2.04-2.58-3.85-2.35-9.04 1.15-18.38 2.44-28.03 3.88-1.68.25-2.88-1.6-1.91-3 2.77-3.99 5.93-9.06 6.21-11.77.38-3.29-.5-8.28-2.07-10.87-1.57-2.58-6.26-6.92-8.89-7.86-8.77-3.05-22.31-3.15-36.22 6.55-7.14 5.01-15.7 22.59-19.96 30.33.63-2.03 1.58-5.05 2.87-9.03 1.28-3.99 2.24-7 2.87-9.04.44-1.25 1.07-3.15 1.88-5.69s1.41-4.48 1.79-5.81c.06-.23.19-.59.38-1.06s.31-.82.38-1.06l.38-1.41c.13-.31.3-.8.52-1.47.22-.66.39-1.15.52-1.47l.85-2.11c.81-2.03.72-3.97-.28-5.81s-2.27-2.78-3.81-2.82-2.8.92-3.81 2.87c-1.75 4.31-3.41 8.86-4.98 13.67s-3.38 10.66-5.45 17.54-3.48 11.58-4.23 14.08l-1.21 3.91c-.21.15-.46.28-.64.46-11.98 11.66-26.8 24.2-44.46 37.64-18.93 14.52-36.15 26.4-51.65 35.64-.16.05-.76.4-1.8 1.04s-1.68 1.04-1.92 1.19-.82.48-1.74 1-1.62.89-2.1 1.11-1.12.52-1.92.89-1.56.68-2.28.93-1.44.47-2.16.67c-3.2.89-5.69.83-7.49-.19-1.8-1.01-2.82-2.61-3.06-4.78-.16-1.14-.16-2.27 0-3.41v-.52c.16-.64.48-1.61.96-2.89 1.52-4.3 4.51-10.64 8.99-19.04 6.87-12.94 19.01-33.59 36.43-61.94 8.31-13.54 23.81-38.26 46.5-74.16 19.97-31.66 32.8-52.18 38.47-61.57.8-1.23 1.92-3.14 3.36-5.7.8-1.33.44-2.44-1.08-3.33s-3.38-1.21-5.57-.96c-2.2.25-3.7 1.04-4.49 2.37-5.35 8.94-18.06 29.36-38.11 61.27-20.37 32.15-36.43 57.76-48.17 76.83-17.74 28.75-30.52 50.43-38.35 65.05-4.55 8.5-7.63 15.04-9.23 19.63-1.2 3.51-1.64 6.45-1.32 8.82.56 4.79 3.2 8.25 7.91 10.37 5.27 2.42 11.54 2.64 18.81.67 2.16-.59 4.23-1.28 6.23-2.07s4.15-1.84 6.47-3.15 4.01-2.28 5.09-2.93c1.08-.64 3-1.88 5.75-3.7 2.76-1.83 4.37-2.89 4.85-3.19 8.15-5.24 17.18-11.46 27.08-18.67 17.36-12.69 32.33-24.58 45.17-35.78-5.96 19.34-12.91 42.09-20.89 68.39-11.77 38.77-21.61 71.41-29.57 98.06-.64 2.17-1.39 4.73-2.26 7.71-1.69 5.79-3.04 10.4-4.04 13.85-1 3.44-2.18 7.61-3.52 12.5-1.35 4.89-2.52 9.41-3.52 13.55-.06.23-.14.61-.23 1.11-.09.51-.17.88-.23 1.11-.5 2.19-.11 3.99 1.17 5.4s2.74 1.9 4.37 1.47 2.69-1.74 3.2-3.93c.94-4.62 2.07-9.31 3.38-14.08 1.32-4.77 3.01-10.56 5.08-17.37s3.45-11.38 4.14-13.73c1.45-5.04 1.9-6.67 1.72-6.18 7.92-26.54 16.23-54.13 24.94-82.82 8.9-29.57 17.45-57.58 25.66-84.02 0 0 .43-1.4.49-1.48 6.24-14.14 12.62-23.24 20.09-33.89l.99-1.41c5.89-8.49 19.63-15.76 24.54-16.19.88-.31 4.95-.46 5.86-.6 1.28-.2 6.36.64 8.02 1.38 2.77 1.23 3.88 4.49 4.23 5.78.4 1.53-.17 6.04-.57 7.01-.18.44-1.14 2.1-1.33 2.65-1.42 2.18-4.71 4.95-10.16 9.88-.69.63-1.79 1.56-3.29 2.82-.31.08-1.54.27-3.67.59-2.13.31-3.45.51-3.95.59s-1.72.29-3.67.65c-1.94.35-3.24.65-3.9.88s-1.83.63-3.52 1.17c-1.69.55-2.94 1.06-3.76 1.53-.81.47-1.9 1.1-3.24 1.88-1.35.78-2.44 1.6-3.29 2.46s-1.75 1.84-2.73 2.93-1.83 2.31-2.58 3.64c-.69 1.25-.83 2.66-.42 4.22s1.11 2.74 2.11 3.52c1.44 1.1 3.07 1.78 4.89 2.05s3.76.08 5.83-.59c2.07-.66 3.76-1.29 5.08-1.88s3.01-1.43 5.08-2.52c5.26-2.82 10.34-6.26 15.23-10.33.5-.08 1.24-.2 2.21-.35.97-.16 1.71-.27 2.21-.35 13.91-2.27 27.76-4.26 41.54-5.98 1.82-.23 3.1-1.33 3.85-3.29.7-1.92.7-3.8-.05-5.59Z" fill="#fff" stroke="#fff" stroke-miterlimit="10"/><circle r="214.09" transform="matrix(0 0 0 0 218.09 218.09)" fill="rgba(255,255,255,0)" stroke="#fff" stroke-width="8" stroke-linecap="round" stroke-linejoin="round" stroke-miterlimit="10" style="animation:e75QMBZvskr3_ts__ts 3000ms linear 1 normal forwards"/></svg>