<svg xmlns="http://www.w3.org/2000/svg" viewBox="0 0 104.17 104.17" style="enable-background:new 0 0 104.17 104.17" xml:space="preserve"><circle transform="rotate(-2.431 52.17 52.118)" cx="52.09" cy="52.09" style="fill:rgba(197,5,113,0.6)" r="52.08"/><path d="M59.89 63.8c0 1.08-.87 1.95-1.95 1.95H46.23c-1.07 0-1.95-.88-1.95-1.95v-5.86H20.86v17.57c0 3.12 2.73 5.86 5.86 5.86h50.75c3.12 0 5.86-2.73 5.86-5.86V57.94H59.89v5.86zm17.57-29.28H67.7v-5.86c0-3.12-2.73-5.86-5.86-5.86H42.33c-3.12 0-5.86 2.73-5.86 5.86v5.86h-9.76c-3.12 0-5.86 2.73-5.86 5.86v13.66h62.46V40.38c.01-3.13-2.73-5.86-5.85-5.86zm-15.61 0H42.33v-5.86h19.52v5.86z" style="fill:#fff"/></svg>