<svg xmlns="http://www.w3.org/2000/svg" viewBox="0 0 104.17 104.17" style="enable-background:new 0 0 104.17 104.17" xml:space="preserve"><circle transform="rotate(-2.431 52.17 52.118)" cx="52.09" cy="52.09" style="fill:rgba(120,27,113,0.6)" r="52.08"/><path d="M62.71 43c0-11.04-10.3-20-23.01-20s-23.01 8.96-23.01 20c0 4.5 1.73 8.63 4.61 11.97-1.81 3.72-4.34 6.51-4.38 6.55-.23.25-.3.62-.16.95.14.33.44.52.78.52 4.24 0 7.83-1.26 10.59-2.73 3.41 1.72 7.35 2.73 11.57 2.73 12.71 0 23.01-8.95 23.01-19.99zm20.31 30.41c2.79-3.39 4.47-7.62 4.47-12.24 0-11.04-9.51-19.99-21.24-19.99h-.1c.05.6.1 1.2.1 1.81 0 11.2-8.81 20.59-20.59 23.01 2.3 8.7 10.53 15.17 20.59 15.17 3.73 0 7.23-.91 10.27-2.5 2.69 1.36 6.11 2.5 10.12 2.5.34 0 .64-.2.78-.52.14-.33.07-.7-.16-.95-.04-.04-2.44-2.7-4.24-6.29z" style="fill:#fff"/></svg>