<svg xmlns="http://www.w3.org/2000/svg" viewBox="0 0 117.28 117.28" style="enable-background:new 0 0 117.28 117.28" xml:space="preserve"><circle transform="rotate(-45.001 58.637 58.639)" cx="58.64" cy="58.64" style="opacity:.32;fill:#fc00ff" r="58.64"/><path d="m84.07 62.23.08 18.19c0 .32-.02.61-.06.92v1.84c0 2.51-2.03 4.54-4.54 4.54h-1.82c-.12 0-.25-.1-.37-.01-.16-.09-.32.01-.48.01h-6.42c-2.51 0-4.54-2.03-4.54-4.54v-10c0-2.01-1.62-3.64-3.64-3.64H55c-2.01 0-3.64 1.62-3.64 3.64v10c0 2.51-2.03 4.54-4.54 4.54h-6.35c-.17 0-.34-.01-.51-.02-.14.01-.27.02-.41.02h-1.82c-2.51 0-4.54-2.03-4.54-4.54V70.45c0-.1 0-.22.01-.32v-7.91h-3.64c-2.05 0-3.64-1.6-3.64-3.65 0-1.02.34-1.93 1.14-2.73l29.13-25.39c.8-.8 1.7-.91 2.5-.91s1.7.23 2.4.8l12.1 10.64v-4.17c0-2.01 1.62-3.64 3.64-3.64h3.64a3.64 3.64 0 0 1 3.64 3.64v13.75l6 5.28c.91.8 1.37 1.7 1.25 2.73 0 2.04-1.7 3.65-3.64 3.65h-3.65z" style="fill:#fff"/></svg>